<svg version="1" xmlns="http://www.w3.org/2000/svg" width="1365.333" height="1365.333" viewBox="0 0 1024.000000 1024.000000"><path d="M477 1c-71.4 5.6-135.1 23.3-197.5 55-95.3 48.4-172.7 125.3-222.1 220.5C24.8 339.3 6.4 405.5 1 479c-2.5 34.3.1 80.5 6.6 119 34.8 204.2 189.3 367 391.7 413.1 46 10.4 101.3 15 145.7 11.9 125.5-8.7 241.1-61.1 329-149 111.6-111.6 165.4-268.2 146-425.1-9.6-77.5-37.8-153.8-80.5-218.4C853.7 100.9 717.7 18.7 562 2.5 543.8.6 493.9-.3 477 1zm29 236.5l12.7 44 2.9-.1c1.6 0 9.7-1.1 17.9-2.3 59.5-8.9 101.3 2.1 125.1 33 9.2 12 17.3 30.7 20.8 48.1 2.3 11.1 2.1 28.5-.4 38.4-3.6 14.2-12.3 29.6-21.9 38.9-2.3 2.1-4.1 4.2-4.1 4.6 0 .3 6.9.9 15.3 1.2 18.5.6 28 2.8 42.2 9.7 27.3 13.2 43.8 38.1 52 78.6 13.2 65.2-12.3 110-82 143.9-12 5.8-30.6 13.6-43.2 18-2.9 1.1-5.3 2.4-5.3 2.9 0 .6 5.7 21 12.6 45.4 7 24.3 12.5 44.4 12.3 44.6-1.1 1.1-53.4 15.5-54 14.8-.4-.4-6.2-20.1-12.9-43.7-6.7-23.7-12.6-43.4-13-43.8-.7-.8-41.7 9.9-43.2 11.2-.3.3 5.2 20.6 12.2 45.1 7.1 24.4 12.8 44.6 12.6 44.7-.2.2-12.5 3.8-27.4 8.1l-27.2 7.8-.9-3c-6.4-23.1-24.5-85.6-25-86.4-.8-1.3-13.1 2-75 19.7-19.4 5.6-35.5 10.1-35.6 9.9-.7-.9-7.8-67.9-7.2-68.4.3-.4 7.7-2.6 16.4-5 22.3-6.2 27.9-8.2 31.5-11.2 3.8-3.2 6.7-9.5 6.8-14.5 0-2.1-9.9-38.5-22.1-81-12.1-42.5-22.2-78-22.4-78.9-1.3-6.3-26.1-91-27.6-93.9-2.1-4.2-8.9-10.6-13.3-12.4-9.1-3.8-15.2-3.1-43.4 5.1-10.6 3.1-19.5 5.4-19.9 5.1-.3-.3-4.2-13.4-8.8-29.1l-8.2-28.4 37.6-10.7c41.1-11.6 67.3-19.2 70.7-20.5 2.2-.9 2.1-1.3-10.7-45.6-7.1-24.6-12.8-44.8-12.6-45 .3-.2 48.2-14 51.8-14.9l2.6-.6 12.3 43.3c6.8 23.8 12.6 43.6 12.9 43.9.6.7 41.7-11.4 42.9-12.5.3-.4-4.9-20-11.7-43.7-6.8-23.6-12.1-43.2-11.8-43.5 1-1 51-15.3 52.6-15.1 1.1.1 5.3 13.5 14.1 44.2z"/><path d="M508.2 355.1c-4 .5-13 2.2-20 3.8-13.7 3.2-46.2 12.8-47.5 14-.8.8 28.9 106.8 30.4 108.5 1.6 1.8 45.6-11.8 62.9-19.5 46.7-20.7 61.8-48.8 44.5-82.9-5.9-11.6-19-20.5-34.9-23.5-8.3-1.6-23.5-1.8-35.4-.4zM581 514.7c-21.2 2.2-42.9 7.1-73 16.5-10.7 3.3-19.8 6.2-20.1 6.4-.4.2 4.8 19.6 11.5 43.1 6.8 23.6 14.4 50.6 17.1 60 2.7 9.5 5.1 17.3 5.5 17.3.4 0 10.8-2.9 23.1-6.4 49.9-14.2 80-28.5 97.9-46.6 18.2-18.4 21.7-38.7 10.5-61.5-7.7-15.8-22.8-25.4-44.8-28.4-7.4-1-19.9-1.2-27.7-.4z"/></svg>